<?xml version="1.0" encoding="UTF-8" standalone="no"?>
<!-- Created with Inkscape (http://www.inkscape.org/) -->

<svg
   xmlns:dc="http://purl.org/dc/elements/1.1/"
   xmlns:cc="http://creativecommons.org/ns#"
   xmlns:rdf="http://www.w3.org/1999/02/22-rdf-syntax-ns#"
   xmlns:svg="http://www.w3.org/2000/svg"
   xmlns="http://www.w3.org/2000/svg"
   xmlns:xlink="http://www.w3.org/1999/xlink"
   xmlns:sodipodi="http://sodipodi.sourceforge.net/DTD/sodipodi-0.dtd"
   xmlns:inkscape="http://www.inkscape.org/namespaces/inkscape"
   width="744.09448819"
   height="1052.3622047"
   id="svg2"
   version="1.1"
   inkscape:version="0.48.0 r9654"
   sodipodi:docname="images.svg">
  <defs
     id="defs4">
    <linearGradient
       inkscape:collect="always"
       id="linearGradient4049">
      <stop
         style="stop-color:#000000;stop-opacity:1;"
         offset="0"
         id="stop4051" />
      <stop
         style="stop-color:#000000;stop-opacity:0;"
         offset="1"
         id="stop4053" />
    </linearGradient>
    <linearGradient
       id="linearGradient3779">
      <stop
         style="stop-color:#ffffff;stop-opacity:1;"
         offset="0"
         id="stop3781" />
      <stop
         style="stop-color:#ffffff;stop-opacity:0;"
         offset="1"
         id="stop3783" />
    </linearGradient>
    <radialGradient
       inkscape:collect="always"
       xlink:href="#linearGradient3779"
       id="radialGradient3785"
       cx="420"
       cy="305.93362"
       fx="420"
       fy="305.93362"
       r="11.428572"
       gradientUnits="userSpaceOnUse" />
    <clipPath
       clipPathUnits="userSpaceOnUse"
       id="clipPath3808">
      <path
         id="path3810"
         d="m 434.28571,310.39791 c 0,6.31183 -5.11674,11.42858 -11.42857,11.42858 -6.31183,0 -11.42857,-5.11675 -11.42857,-11.42858 0,-6.31182 5.11674,-11.42857 11.42857,-11.42857 6.31183,0 11.42857,5.11675 11.42857,11.42857 z"
         style="fill:#d40000;fill-opacity:1;stroke:#666666;stroke-width:0;stroke-linecap:round;stroke-linejoin:miter;stroke-miterlimit:4;stroke-opacity:1;stroke-dashoffset:0"
         inkscape:connector-curvature="0" />
    </clipPath>
    <filter
       inkscape:collect="always"
       id="filter3893"
       x="-0.18636368"
       width="1.3727274"
       y="-0.1863636"
       height="1.3727272">
      <feGaussianBlur
         inkscape:collect="always"
         stdDeviation="1.7748919"
         id="feGaussianBlur3895" />
    </filter>
    <radialGradient
       inkscape:collect="always"
       xlink:href="#linearGradient3779"
       id="radialGradient3901"
       gradientUnits="userSpaceOnUse"
       cx="420"
       cy="305.93362"
       fx="420"
       fy="305.93362"
       r="11.428572" />
    <filter
       inkscape:collect="always"
       id="filter3997">
      <feGaussianBlur
         inkscape:collect="always"
         stdDeviation="2.111999"
         id="feGaussianBlur3999" />
    </filter>
    <linearGradient
       inkscape:collect="always"
       xlink:href="#linearGradient4049"
       id="linearGradient4055"
       x1="456.42856"
       y1="648.79077"
       x2="442.14285"
       y2="516.64789"
       gradientUnits="userSpaceOnUse"
       gradientTransform="translate(-270.71429,-2.8571429)" />
    <radialGradient
       inkscape:collect="always"
       xlink:href="#linearGradient3779"
       id="radialGradient3029"
       gradientUnits="userSpaceOnUse"
       cx="420"
       cy="305.93362"
       fx="420"
       fy="305.93362"
       r="11.428572" />
    <radialGradient
       inkscape:collect="always"
       xlink:href="#linearGradient3779"
       id="radialGradient3042"
       gradientUnits="userSpaceOnUse"
       cx="420"
       cy="305.93362"
       fx="420"
       fy="305.93362"
       r="11.428572" />
    <radialGradient
       inkscape:collect="always"
       xlink:href="#linearGradient3779"
       id="radialGradient3049"
       gradientUnits="userSpaceOnUse"
       cx="420"
       cy="305.93362"
       fx="420"
       fy="305.93362"
       r="11.428572" />
    <radialGradient
       inkscape:collect="always"
       xlink:href="#linearGradient3779"
       id="radialGradient3061"
       gradientUnits="userSpaceOnUse"
       cx="420"
       cy="305.93362"
       fx="420"
       fy="305.93362"
       r="11.428572" />
    <radialGradient
       inkscape:collect="always"
       xlink:href="#linearGradient3779"
       id="radialGradient3071"
       gradientUnits="userSpaceOnUse"
       cx="420"
       cy="305.93362"
       fx="420"
       fy="305.93362"
       r="11.428572" />
    <radialGradient
       inkscape:collect="always"
       xlink:href="#linearGradient3779"
       id="radialGradient3081"
       gradientUnits="userSpaceOnUse"
       cx="420"
       cy="305.93362"
       fx="420"
       fy="305.93362"
       r="11.428572" />
    <radialGradient
       inkscape:collect="always"
       xlink:href="#linearGradient3779"
       id="radialGradient3083"
       gradientUnits="userSpaceOnUse"
       cx="420"
       cy="305.93362"
       fx="420"
       fy="305.93362"
       r="11.428572" />
    <radialGradient
       inkscape:collect="always"
       xlink:href="#linearGradient3779"
       id="radialGradient3099"
       gradientUnits="userSpaceOnUse"
       cx="420"
       cy="305.93362"
       fx="420"
       fy="305.93362"
       r="11.428572" />
    <radialGradient
       inkscape:collect="always"
       xlink:href="#linearGradient3779"
       id="radialGradient3129"
       gradientUnits="userSpaceOnUse"
       cx="420"
       cy="305.93362"
       fx="420"
       fy="305.93362"
       r="11.428572" />
    <radialGradient
       inkscape:collect="always"
       xlink:href="#linearGradient3779"
       id="radialGradient3131"
       gradientUnits="userSpaceOnUse"
       cx="420"
       cy="305.93362"
       fx="420"
       fy="305.93362"
       r="11.428572" />
    <radialGradient
       inkscape:collect="always"
       xlink:href="#linearGradient3779"
       id="radialGradient3157"
       gradientUnits="userSpaceOnUse"
       cx="420"
       cy="305.93362"
       fx="420"
       fy="305.93362"
       r="11.428572" />
    <radialGradient
       inkscape:collect="always"
       xlink:href="#linearGradient3779"
       id="radialGradient3161"
       gradientUnits="userSpaceOnUse"
       cx="420"
       cy="305.93362"
       fx="420"
       fy="305.93362"
       r="11.428572" />
    <radialGradient
       inkscape:collect="always"
       xlink:href="#linearGradient3779"
       id="radialGradient3165"
       gradientUnits="userSpaceOnUse"
       cx="420"
       cy="305.93362"
       fx="420"
       fy="305.93362"
       r="11.428572" />
    <radialGradient
       inkscape:collect="always"
       xlink:href="#linearGradient3779"
       id="radialGradient3227"
       gradientUnits="userSpaceOnUse"
       cx="420"
       cy="305.93362"
       fx="420"
       fy="305.93362"
       r="11.428572" />
    <radialGradient
       inkscape:collect="always"
       xlink:href="#linearGradient3779"
       id="radialGradient3229"
       gradientUnits="userSpaceOnUse"
       cx="420"
       cy="305.93362"
       fx="420"
       fy="305.93362"
       r="11.428572" />
    <radialGradient
       inkscape:collect="always"
       xlink:href="#linearGradient3779"
       id="radialGradient3231"
       gradientUnits="userSpaceOnUse"
       cx="420"
       cy="305.93362"
       fx="420"
       fy="305.93362"
       r="11.428572" />
    <radialGradient
       inkscape:collect="always"
       xlink:href="#linearGradient3779"
       id="radialGradient3233"
       gradientUnits="userSpaceOnUse"
       cx="420"
       cy="305.93362"
       fx="420"
       fy="305.93362"
       r="11.428572" />
    <radialGradient
       inkscape:collect="always"
       xlink:href="#linearGradient3779"
       id="radialGradient3235"
       gradientUnits="userSpaceOnUse"
       cx="420"
       cy="305.93362"
       fx="420"
       fy="305.93362"
       r="11.428572" />
    <radialGradient
       inkscape:collect="always"
       xlink:href="#linearGradient3779"
       id="radialGradient3237"
       gradientUnits="userSpaceOnUse"
       cx="420"
       cy="305.93362"
       fx="420"
       fy="305.93362"
       r="11.428572" />
    <radialGradient
       inkscape:collect="always"
       xlink:href="#linearGradient3779"
       id="radialGradient3253"
       gradientUnits="userSpaceOnUse"
       cx="420"
       cy="305.93362"
       fx="420"
       fy="305.93362"
       r="11.428572" />
    <radialGradient
       inkscape:collect="always"
       xlink:href="#linearGradient3779"
       id="radialGradient3255"
       gradientUnits="userSpaceOnUse"
       cx="420"
       cy="305.93362"
       fx="420"
       fy="305.93362"
       r="11.428572" />
    <linearGradient
       inkscape:collect="always"
       xlink:href="#linearGradient4049"
       id="linearGradient3270"
       gradientUnits="userSpaceOnUse"
       gradientTransform="translate(-244.42435,26.093966)"
       x1="456.42856"
       y1="648.79077"
       x2="442.14285"
       y2="516.64789" />
  </defs>
  <sodipodi:namedview
     id="base"
     pagecolor="#ffffff"
     bordercolor="#666666"
     borderopacity="1.0"
     inkscape:pageopacity="0.0"
     inkscape:pageshadow="2"
     inkscape:zoom="0.54689285"
     inkscape:cx="-8.9083467"
     inkscape:cy="585.21165"
     inkscape:document-units="px"
     inkscape:current-layer="layer1"
     showgrid="false"
     inkscape:window-width="1280"
     inkscape:window-height="971"
     inkscape:window-x="1680"
     inkscape:window-y="24"
     inkscape:window-maximized="1"
     showguides="true"
     inkscape:guide-bbox="true">
    <sodipodi:guide
       orientation="1,0"
       position="619.97099,759.28668"
       id="guide3241" />
    <sodipodi:guide
       orientation="0,1"
       position="611.89003,750.07439"
       id="guide3243" />
    <sodipodi:guide
       orientation="0,1"
       position="625.46604,674.92149"
       id="guide3245" />
    <sodipodi:guide
       orientation="1,0"
       position="549.98991,744.90258"
       id="guide3247" />
    <sodipodi:guide
       orientation="1,0"
       position="480.00882,756.0543"
       id="guide3249" />
    <sodipodi:guide
       orientation="1,0"
       position="410.02774,713.71009"
       id="guide3251" />
    <sodipodi:guide
       orientation="1,0"
       position="62.169399,774.37472"
       id="guide3257" />
  </sodipodi:namedview>
  <metadata
     id="metadata7">
    <rdf:RDF>
      <cc:Work
         rdf:about="">
        <dc:format>image/svg+xml</dc:format>
        <dc:type
           rdf:resource="http://purl.org/dc/dcmitype/StillImage" />
        <dc:title></dc:title>
      </cc:Work>
    </rdf:RDF>
  </metadata>
  <g
     inkscape:label="Layer 1"
     inkscape:groupmode="layer"
     id="layer1">
    <g
       id="g3174"
       inkscape:export-filename="/home/tim/p/crk/public/images/pins.png"
       inkscape:export-xdpi="82.599998"
       inkscape:export-ydpi="82.599998"
       transform="translate(187.89015,-7.1909774)">
      <path
         inkscape:export-ydpi="82.599998"
         inkscape:export-xdpi="82.599998"
         inkscape:export-filename="/home/tim/p/crk/public/images/note.png"
         transform="matrix(0.7903964,0,0,0.7903964,65.204484,81.535284)"
         inkscape:connector-curvature="0"
         style="fill:#000000;fill-opacity:0.1440678;stroke:#666666;stroke-width:0;stroke-linecap:round;stroke-linejoin:miter;stroke-miterlimit:4;stroke-opacity:1;stroke-dashoffset:0;filter:url(#filter3893)"
         d="m 449.19643,323.5229 c 0,6.31183 -5.11674,11.42858 -11.42857,11.42858 -6.31183,0 -11.42857,-5.11675 -11.42857,-11.42858 0,-6.31182 5.11674,-11.42857 11.42857,-11.42857 6.31183,0 11.42857,5.11675 11.42857,11.42857 z"
         id="path3831" />
      <path
         inkscape:export-ydpi="82.599998"
         inkscape:export-xdpi="82.599998"
         inkscape:export-filename="/home/tim/p/crk/public/images/note.png"
         inkscape:connector-curvature="0"
         id="path3814"
         d="m 401.62129,323.50944 -1.0897,1.34582 11.09678,13.4582 c 0.0365,0.0657 0.0785,0.12397 0.12713,0.1765 0.1375,0.14859 0.32818,0.24269 0.52669,0.24269 0.42987,0 0.76279,-0.42649 0.76279,-0.94869 0,-0.24934 -0.07,-0.47088 -0.19978,-0.63982 l -0.0182,-0.0221 -11.20575,-13.61264 z"
         style="fill:#4e4e4e;fill-opacity:1;stroke:#666666;stroke-width:0;stroke-linecap:round;stroke-linejoin:miter;stroke-miterlimit:4;stroke-opacity:1;stroke-dashoffset:0" />
      <path
         id="path3763"
         d="m 411.57176,320.90734 c 0,6.31183 -5.11674,11.42858 -11.42857,11.42858 -6.31183,0 -11.42857,-5.11675 -11.42857,-11.42858 0,-6.31182 5.11674,-11.42857 11.42857,-11.42857 6.31183,0 11.42857,5.11675 11.42857,11.42857 z"
         style="fill:#d40000;fill-opacity:1;stroke:#666666;stroke-width:0;stroke-linecap:round;stroke-linejoin:miter;stroke-miterlimit:4;stroke-opacity:1;stroke-dashoffset:0"
         inkscape:connector-curvature="0" />
      <path
         clip-path="url(#clipPath3808)"
         transform="translate(-22.713949,10.509431)"
         id="path3777"
         d="m 431.42857,305.93362 c 0,6.31183 -5.11674,11.42858 -11.42857,11.42858 -6.31183,0 -11.42857,-5.11675 -11.42857,-11.42858 0,-6.31182 5.11674,-11.42857 11.42857,-11.42857 6.31183,0 11.42857,5.11675 11.42857,11.42857 z"
         style="opacity:0.66153846;fill:url(#radialGradient3255);fill-opacity:1;stroke:#666666;stroke-width:0;stroke-linecap:round;stroke-linejoin:miter;stroke-miterlimit:4;stroke-opacity:1;stroke-dashoffset:0"
         inkscape:connector-curvature="0" />
    </g>
    <g
       id="g3169"
       inkscape:export-filename="/home/tim/p/crk/public/images/note.png"
       inkscape:export-xdpi="82.599998"
       inkscape:export-ydpi="82.599998"
       transform="translate(27.300085,-232.52607)">
      <path
         inkscape:export-ydpi="82.599998"
         inkscape:export-xdpi="82.599998"
         inkscape:export-filename="/home/tim/p/crk/public/images/note.png"
         style="fill:#000000;fill-opacity:0.22881356;stroke:#666666;stroke-width:0;stroke-linecap:round;stroke-linejoin:miter;stroke-miterlimit:4;stroke-opacity:1;stroke-dashoffset:0;filter:url(#filter3997)"
         d="m 40.425184,310.06866 0,220.72309 c 0.0786,5.93168 -0.36259,6.96181 -1.01015,9.07291 l 261.119916,-2.88372 c 0.33671,-2.10421 0.16836,-6.44404 1.01015,-11.74503 l -7.07106,-220.18212 c -44.01394,0.22686 -64.62695,5.6719 -99.92832,5.01487 z"
         id="path3903"
         inkscape:connector-curvature="0"
         sodipodi:nodetypes="cccccccc" />
      <path
         inkscape:export-ydpi="82.599998"
         inkscape:export-xdpi="82.599998"
         inkscape:export-filename="/home/tim/p/crk/public/images/note.png"
         sodipodi:nodetypes="cccccccc"
         inkscape:connector-curvature="0"
         id="rect2985"
         d="m 35.879464,305.01786 0,220.72309 c 0.0786,5.93168 -0.36259,6.96181 -1.01015,9.07291 l 261.624996,-9.44971 c 0.33671,-2.10421 0.67343,-4.42374 1.01015,-7.19935 l 0,-209.57551 C 259.55144,305.28061 225.30137,305.67489 190,305.01786 z"
         style="fill:#ffdf6a;fill-opacity:1;stroke:#666666;stroke-width:0;stroke-linecap:round;stroke-linejoin:miter;stroke-miterlimit:4;stroke-opacity:1;stroke-dashoffset:0" />
      <path
         inkscape:connector-curvature="0"
         inkscape:export-ydpi="82.599998"
         inkscape:export-xdpi="82.599998"
         inkscape:export-filename="/home/tim/p/crk/public/images/note.png"
         id="path4001"
         d="m 35.879464,498.79911 0,26.9375 c 0.0786,5.93168 -0.35244,6.9514 -1,9.0625 l 261.624996,-9.4375 c 0.33671,-2.10421 0.66328,-4.41189 1,-7.1875 l 0,-19.375 -261.624996,0 z"
         style="fill:url(#linearGradient4055);fill-opacity:1;stroke:#666666;stroke-width:0;stroke-linecap:round;stroke-linejoin:miter;stroke-miterlimit:4;stroke-opacity:1;stroke-dashoffset:0" />
    </g>
    <g
       id="g3198"
       inkscape:export-filename="/home/tim/p/crk/public/images/pins.png"
       inkscape:export-xdpi="82.599998"
       inkscape:export-ydpi="82.599998"
       transform="translate(-24.816155,-7.2298634)">
      <path
         id="path3017"
         d="m 449.19643,323.5229 c 0,6.31183 -5.11674,11.42858 -11.42857,11.42858 -6.31183,0 -11.42857,-5.11675 -11.42857,-11.42858 0,-6.31182 5.11674,-11.42857 11.42857,-11.42857 6.31183,0 11.42857,5.11675 11.42857,11.42857 z"
         style="fill:#000000;fill-opacity:0.1440678;stroke:#666666;stroke-width:0;stroke-linecap:round;stroke-linejoin:miter;stroke-miterlimit:4;stroke-opacity:1;stroke-dashoffset:0;filter:url(#filter3893)"
         inkscape:connector-curvature="0"
         transform="matrix(0.7903964,0,0,0.7903964,139.34319,107.82943)"
         inkscape:export-filename="/home/tim/p/crk/public/images/note_drag.png"
         inkscape:export-xdpi="82.599998"
         inkscape:export-ydpi="82.599998" />
      <path
         style="fill:#4e4e4e;fill-opacity:1;stroke:#666666;stroke-width:0;stroke-linecap:round;stroke-linejoin:miter;stroke-miterlimit:4;stroke-opacity:1;stroke-dashoffset:0"
         d="m 447.75056,323.54832 -1.0897,1.34582 11.09678,13.4582 c 0.0365,0.0657 0.0785,0.12397 0.12713,0.1765 0.1375,0.14859 0.32818,0.24269 0.52669,0.24269 0.42987,0 0.76279,-0.42649 0.76279,-0.94869 0,-0.24934 -0.07,-0.47088 -0.19978,-0.63982 l -0.0182,-0.0221 -11.20575,-13.61264 z"
         id="path3019"
         inkscape:connector-curvature="0"
         inkscape:export-filename="/home/tim/p/crk/public/images/note_drag.png"
         inkscape:export-xdpi="82.599998"
         inkscape:export-ydpi="82.599998" />
      <g
         id="g3021"
         transform="translate(26.272468,15.012606)"
         inkscape:export-filename="/home/tim/p/crk/public/images/note_drag.png"
         inkscape:export-xdpi="82.599998"
         inkscape:export-ydpi="82.599998">
        <path
           id="path3023"
           d="m 431.42857,305.93362 c 0,6.31183 -5.11674,11.42858 -11.42857,11.42858 -6.31183,0 -11.42857,-5.11675 -11.42857,-11.42858 0,-6.31182 5.11674,-11.42857 11.42857,-11.42857 6.31183,0 11.42857,5.11675 11.42857,11.42857 z"
           style="fill:#d40000;fill-opacity:1;stroke:#666666;stroke-width:0;stroke-linecap:round;stroke-linejoin:miter;stroke-miterlimit:4;stroke-opacity:1;stroke-dashoffset:0"
           inkscape:connector-curvature="0" />
        <path
           clip-path="url(#clipPath3808)"
           transform="translate(-2.8571429,-4.4642857)"
           id="path3025"
           d="m 431.42857,305.93362 c 0,6.31183 -5.11674,11.42858 -11.42857,11.42858 -6.31183,0 -11.42857,-5.11675 -11.42857,-11.42858 0,-6.31182 5.11674,-11.42857 11.42857,-11.42857 6.31183,0 11.42857,5.11675 11.42857,11.42857 z"
           style="opacity:0.66153846;fill:url(#radialGradient3233);fill-opacity:1;stroke:#666666;stroke-width:0;stroke-linecap:round;stroke-linejoin:miter;stroke-miterlimit:4;stroke-opacity:1;stroke-dashoffset:0"
           inkscape:connector-curvature="0" />
      </g>
      <path
         transform="translate(-50.088211,16.77348)"
         inkscape:export-ydpi="82.599998"
         inkscape:export-xdpi="82.599998"
         inkscape:export-filename="/home/tim/p/crk/public/images/note_drag.png"
         d="m 535.88593,321.39053 c 0,0.62763 -0.50879,1.13643 -1.13642,1.13643 -0.62763,0 -1.13642,-0.5088 -1.13642,-1.13643 0,-0.62762 0.50879,-1.13642 1.13642,-1.13642 0.62763,0 1.13642,0.5088 1.13642,1.13642 z"
         sodipodi:ry="1.1364216"
         sodipodi:rx="1.1364216"
         sodipodi:cy="321.39053"
         sodipodi:cx="534.74951"
         id="path3033"
         style="fill:#000000;fill-opacity:0.75;stroke:#4e4e4e;stroke-width:0;stroke-linecap:round;stroke-linejoin:miter;stroke-miterlimit:4;stroke-opacity:1;stroke-dasharray:none;stroke-dashoffset:0"
         sodipodi:type="arc" />
    </g>
    <g
       id="g3180"
       inkscape:export-filename="/home/tim/p/crk/public/images/pins.png"
       inkscape:export-xdpi="82.599998"
       inkscape:export-ydpi="82.599998"
       transform="translate(187.89015,27.961923)">
      <path
         id="path3053"
         d="m 449.19643,323.5229 c 0,6.31183 -5.11674,11.42858 -11.42857,11.42858 -6.31183,0 -11.42857,-5.11675 -11.42857,-11.42858 0,-6.31182 5.11674,-11.42857 11.42857,-11.42857 6.31183,0 11.42857,5.11675 11.42857,11.42857 z"
         style="fill:#000000;fill-opacity:0.1440678;stroke:#666666;stroke-width:0;stroke-linecap:round;stroke-linejoin:miter;stroke-miterlimit:4;stroke-opacity:1;stroke-dashoffset:0;filter:url(#filter3893)"
         inkscape:connector-curvature="0"
         transform="matrix(0.7903964,0,0,0.7903964,65.204484,121.53528)"
         inkscape:export-filename="/home/tim/p/crk/public/images/note.png"
         inkscape:export-xdpi="82.599998"
         inkscape:export-ydpi="82.599998" />
      <path
         style="fill:#4e4e4e;fill-opacity:1;stroke:#666666;stroke-width:0;stroke-linecap:round;stroke-linejoin:miter;stroke-miterlimit:4;stroke-opacity:1;stroke-dashoffset:0"
         d="m 401.62129,363.50944 -1.0897,1.34582 11.09678,13.4582 c 0.0365,0.0657 0.0785,0.12397 0.12713,0.1765 0.1375,0.14859 0.32818,0.24269 0.52669,0.24269 0.42987,0 0.76279,-0.42649 0.76279,-0.94869 0,-0.24934 -0.07,-0.47088 -0.19978,-0.63982 l -0.0182,-0.0221 -11.20575,-13.61264 z"
         id="path3055"
         inkscape:connector-curvature="0"
         inkscape:export-filename="/home/tim/p/crk/public/images/note.png"
         inkscape:export-xdpi="82.599998"
         inkscape:export-ydpi="82.599998" />
      <path
         inkscape:connector-curvature="0"
         style="fill:#00ff00;fill-opacity:1;stroke:#666666;stroke-width:0;stroke-linecap:round;stroke-linejoin:miter;stroke-miterlimit:4;stroke-opacity:1;stroke-dashoffset:0"
         d="m 411.57176,360.90734 c 0,6.31183 -5.11674,11.42858 -11.42857,11.42858 -6.31183,0 -11.42857,-5.11675 -11.42857,-11.42858 0,-6.31182 5.11674,-11.42857 11.42857,-11.42857 6.31183,0 11.42857,5.11675 11.42857,11.42857 z"
         id="path3057" />
      <path
         inkscape:connector-curvature="0"
         style="opacity:0.66153846;fill:url(#radialGradient3253);fill-opacity:1;stroke:#666666;stroke-width:0;stroke-linecap:round;stroke-linejoin:miter;stroke-miterlimit:4;stroke-opacity:1;stroke-dashoffset:0"
         d="m 431.42857,305.93362 c 0,6.31183 -5.11674,11.42858 -11.42857,11.42858 -6.31183,0 -11.42857,-5.11675 -11.42857,-11.42858 0,-6.31182 5.11674,-11.42857 11.42857,-11.42857 6.31183,0 11.42857,5.11675 11.42857,11.42857 z"
         id="path3059"
         transform="translate(-22.713949,50.509431)"
         clip-path="url(#clipPath3808)" />
    </g>
    <g
       id="g3186"
       inkscape:export-filename="/home/tim/p/crk/public/images/pins.png"
       inkscape:export-xdpi="82.599998"
       inkscape:export-ydpi="82.599998"
       transform="translate(257.87123,-87.190974)">
      <path
         inkscape:export-ydpi="82.599998"
         inkscape:export-xdpi="82.599998"
         inkscape:export-filename="/home/tim/p/crk/public/images/note.png"
         transform="matrix(0.7903964,0,0,0.7903964,65.204484,161.53528)"
         inkscape:connector-curvature="0"
         style="fill:#000000;fill-opacity:0.1440678;stroke:#666666;stroke-width:0;stroke-linecap:round;stroke-linejoin:miter;stroke-miterlimit:4;stroke-opacity:1;stroke-dashoffset:0;filter:url(#filter3893)"
         d="m 449.19643,323.5229 c 0,6.31183 -5.11674,11.42858 -11.42857,11.42858 -6.31183,0 -11.42857,-5.11675 -11.42857,-11.42858 0,-6.31182 5.11674,-11.42857 11.42857,-11.42857 6.31183,0 11.42857,5.11675 11.42857,11.42857 z"
         id="path3063" />
      <path
         inkscape:export-ydpi="82.599998"
         inkscape:export-xdpi="82.599998"
         inkscape:export-filename="/home/tim/p/crk/public/images/note.png"
         inkscape:connector-curvature="0"
         id="path3065"
         d="m 401.62129,403.50944 -1.0897,1.34582 11.09678,13.4582 c 0.0365,0.0657 0.0785,0.12397 0.12713,0.1765 0.1375,0.14859 0.32818,0.24269 0.52669,0.24269 0.42987,0 0.76279,-0.42649 0.76279,-0.94869 0,-0.24934 -0.07,-0.47088 -0.19978,-0.63982 l -0.0182,-0.0221 -11.20575,-13.61264 z"
         style="fill:#4e4e4e;fill-opacity:1;stroke:#666666;stroke-width:0;stroke-linecap:round;stroke-linejoin:miter;stroke-miterlimit:4;stroke-opacity:1;stroke-dashoffset:0" />
      <path
         id="path3067"
         d="m 411.57176,400.90734 c 0,6.31183 -5.11674,11.42858 -11.42857,11.42858 -6.31183,0 -11.42857,-5.11675 -11.42857,-11.42858 0,-6.31182 5.11674,-11.42857 11.42857,-11.42857 6.31183,0 11.42857,5.11675 11.42857,11.42857 z"
         style="fill:#0000ff;fill-opacity:1;stroke:#666666;stroke-width:0;stroke-linecap:round;stroke-linejoin:miter;stroke-miterlimit:4;stroke-opacity:1;stroke-dashoffset:0"
         inkscape:connector-curvature="0" />
      <path
         clip-path="url(#clipPath3808)"
         transform="translate(-22.713949,90.509431)"
         id="path3069"
         d="m 431.42857,305.93362 c 0,6.31183 -5.11674,11.42858 -11.42857,11.42858 -6.31183,0 -11.42857,-5.11675 -11.42857,-11.42858 0,-6.31182 5.11674,-11.42857 11.42857,-11.42857 6.31183,0 11.42857,5.11675 11.42857,11.42857 z"
         style="opacity:0.66153846;fill:url(#radialGradient3237);fill-opacity:1;stroke:#666666;stroke-width:0;stroke-linecap:round;stroke-linejoin:miter;stroke-miterlimit:4;stroke-opacity:1;stroke-dashoffset:0"
         inkscape:connector-curvature="0" />
    </g>
    <g
       id="g3192"
       inkscape:export-filename="/home/tim/p/crk/public/images/pins.png"
       inkscape:export-xdpi="82.599998"
       inkscape:export-ydpi="82.599998"
       transform="translate(257.87123,-52.038077)">
      <path
         id="path3073"
         d="m 449.19643,323.5229 c 0,6.31183 -5.11674,11.42858 -11.42857,11.42858 -6.31183,0 -11.42857,-5.11675 -11.42857,-11.42858 0,-6.31182 5.11674,-11.42857 11.42857,-11.42857 6.31183,0 11.42857,5.11675 11.42857,11.42857 z"
         style="fill:#000000;fill-opacity:0.1440678;stroke:#666666;stroke-width:0;stroke-linecap:round;stroke-linejoin:miter;stroke-miterlimit:4;stroke-opacity:1;stroke-dashoffset:0;filter:url(#filter3893)"
         inkscape:connector-curvature="0"
         transform="matrix(0.7903964,0,0,0.7903964,65.204484,201.53528)"
         inkscape:export-filename="/home/tim/p/crk/public/images/note.png"
         inkscape:export-xdpi="82.599998"
         inkscape:export-ydpi="82.599998" />
      <path
         style="fill:#4e4e4e;fill-opacity:1;stroke:#666666;stroke-width:0;stroke-linecap:round;stroke-linejoin:miter;stroke-miterlimit:4;stroke-opacity:1;stroke-dashoffset:0"
         d="m 401.62129,443.50944 -1.0897,1.34582 11.09678,13.4582 c 0.0365,0.0657 0.0785,0.12397 0.12713,0.1765 0.1375,0.14859 0.32818,0.24269 0.52669,0.24269 0.42987,0 0.76279,-0.42649 0.76279,-0.94869 0,-0.24934 -0.07,-0.47088 -0.19978,-0.63982 l -0.0182,-0.0221 -11.20575,-13.61264 z"
         id="path3075"
         inkscape:connector-curvature="0"
         inkscape:export-filename="/home/tim/p/crk/public/images/note.png"
         inkscape:export-xdpi="82.599998"
         inkscape:export-ydpi="82.599998" />
      <path
         inkscape:connector-curvature="0"
         style="fill:#ffff00;fill-opacity:1;stroke:#666666;stroke-width:0;stroke-linecap:round;stroke-linejoin:miter;stroke-miterlimit:4;stroke-opacity:1;stroke-dashoffset:0"
         d="m 411.57176,440.90734 c 0,6.31183 -5.11674,11.42858 -11.42857,11.42858 -6.31183,0 -11.42857,-5.11675 -11.42857,-11.42858 0,-6.31182 5.11674,-11.42857 11.42857,-11.42857 6.31183,0 11.42857,5.11675 11.42857,11.42857 z"
         id="path3077" />
      <path
         inkscape:connector-curvature="0"
         style="opacity:0.66153846;fill:url(#radialGradient3235);fill-opacity:1;stroke:#666666;stroke-width:0;stroke-linecap:round;stroke-linejoin:miter;stroke-miterlimit:4;stroke-opacity:1;stroke-dashoffset:0"
         d="m 431.42857,305.93362 c 0,6.31183 -5.11674,11.42858 -11.42857,11.42858 -6.31183,0 -11.42857,-5.11675 -11.42857,-11.42858 0,-6.31182 5.11674,-11.42857 11.42857,-11.42857 6.31183,0 11.42857,5.11675 11.42857,11.42857 z"
         id="path3079"
         transform="translate(-22.713949,130.50943)"
         clip-path="url(#clipPath3808)" />
    </g>
    <g
       id="g3206"
       inkscape:export-filename="/home/tim/p/crk/public/images/pins.png"
       inkscape:export-xdpi="82.599998"
       inkscape:export-ydpi="82.599998"
       transform="translate(-24.816155,-12.076966)">
      <path
         inkscape:export-ydpi="82.599998"
         inkscape:export-xdpi="82.599998"
         inkscape:export-filename="/home/tim/p/crk/public/images/note_drag.png"
         transform="matrix(0.7903964,0,0,0.7903964,139.34319,187.82943)"
         inkscape:connector-curvature="0"
         style="fill:#000000;fill-opacity:0.1440678;stroke:#666666;stroke-width:0;stroke-linecap:round;stroke-linejoin:miter;stroke-miterlimit:4;stroke-opacity:1;stroke-dashoffset:0;filter:url(#filter3893)"
         d="m 449.19643,323.5229 c 0,6.31183 -5.11674,11.42858 -11.42857,11.42858 -6.31183,0 -11.42857,-5.11675 -11.42857,-11.42858 0,-6.31182 5.11674,-11.42857 11.42857,-11.42857 6.31183,0 11.42857,5.11675 11.42857,11.42857 z"
         id="path3087" />
      <path
         inkscape:export-ydpi="82.599998"
         inkscape:export-xdpi="82.599998"
         inkscape:export-filename="/home/tim/p/crk/public/images/note_drag.png"
         inkscape:connector-curvature="0"
         id="path3089"
         d="m 447.75056,403.54832 -1.0897,1.34582 11.09678,13.4582 c 0.0365,0.0657 0.0785,0.12397 0.12713,0.1765 0.1375,0.14859 0.32818,0.24269 0.52669,0.24269 0.42987,0 0.76279,-0.42649 0.76279,-0.94869 0,-0.24934 -0.07,-0.47088 -0.19978,-0.63982 l -0.0182,-0.0221 -11.20575,-13.61264 z"
         style="fill:#4e4e4e;fill-opacity:1;stroke:#666666;stroke-width:0;stroke-linecap:round;stroke-linejoin:miter;stroke-miterlimit:4;stroke-opacity:1;stroke-dashoffset:0" />
      <path
         id="path3093"
         d="m 457.70104,400.94623 c 0,6.31183 -5.11674,11.42858 -11.42857,11.42858 -6.31183,0 -11.42857,-5.11675 -11.42857,-11.42858 0,-6.31182 5.11674,-11.42857 11.42857,-11.42857 6.31183,0 11.42857,5.11675 11.42857,11.42857 z"
         style="fill:#00ff00;fill-opacity:1;stroke:#666666;stroke-width:0;stroke-linecap:round;stroke-linejoin:miter;stroke-miterlimit:4;stroke-opacity:1;stroke-dashoffset:0"
         inkscape:connector-curvature="0" />
      <path
         clip-path="url(#clipPath3808)"
         transform="translate(23.415325,90.54832)"
         id="path3095"
         d="m 431.42857,305.93362 c 0,6.31183 -5.11674,11.42858 -11.42857,11.42858 -6.31183,0 -11.42857,-5.11675 -11.42857,-11.42858 0,-6.31182 5.11674,-11.42857 11.42857,-11.42857 6.31183,0 11.42857,5.11675 11.42857,11.42857 z"
         style="opacity:0.66153846;fill:url(#radialGradient3231);fill-opacity:1;stroke:#666666;stroke-width:0;stroke-linecap:round;stroke-linejoin:miter;stroke-miterlimit:4;stroke-opacity:1;stroke-dashoffset:0"
         inkscape:connector-curvature="0" />
      <path
         sodipodi:type="arc"
         style="fill:#000000;fill-opacity:0.75;stroke:#4e4e4e;stroke-width:0;stroke-linecap:round;stroke-linejoin:miter;stroke-miterlimit:4;stroke-opacity:1;stroke-dasharray:none;stroke-dashoffset:0"
         id="path3097"
         sodipodi:cx="534.74951"
         sodipodi:cy="321.39053"
         sodipodi:rx="1.1364216"
         sodipodi:ry="1.1364216"
         d="m 535.88593,321.39053 c 0,0.62763 -0.50879,1.13643 -1.13642,1.13643 -0.62763,0 -1.13642,-0.5088 -1.13642,-1.13643 0,-0.62762 0.50879,-1.13642 1.13642,-1.13642 0.62763,0 1.13642,0.5088 1.13642,1.13642 z"
         inkscape:export-filename="/home/tim/p/crk/public/images/note_drag.png"
         inkscape:export-xdpi="82.599998"
         inkscape:export-ydpi="82.599998"
         transform="translate(-50.088211,96.77348)" />
    </g>
    <g
       id="g3220"
       inkscape:export-filename="/home/tim/p/crk/public/images/pins.png"
       inkscape:export-xdpi="82.599998"
       inkscape:export-ydpi="82.599998"
       transform="translate(-16.941545,-7.2728604)">
      <path
         inkscape:export-ydpi="82.599998"
         inkscape:export-xdpi="82.599998"
         inkscape:export-filename="/home/tim/p/crk/public/images/note_drag.png"
         transform="matrix(0.7903964,0,0,0.7903964,201.34319,107.82943)"
         inkscape:connector-curvature="0"
         style="fill:#000000;fill-opacity:0.1440678;stroke:#666666;stroke-width:0;stroke-linecap:round;stroke-linejoin:miter;stroke-miterlimit:4;stroke-opacity:1;stroke-dashoffset:0;filter:url(#filter3893)"
         d="m 449.19643,323.5229 c 0,6.31183 -5.11674,11.42858 -11.42857,11.42858 -6.31183,0 -11.42857,-5.11675 -11.42857,-11.42858 0,-6.31182 5.11674,-11.42857 11.42857,-11.42857 6.31183,0 11.42857,5.11675 11.42857,11.42857 z"
         id="path3103" />
      <path
         inkscape:export-ydpi="82.599998"
         inkscape:export-xdpi="82.599998"
         inkscape:export-filename="/home/tim/p/crk/public/images/note_drag.png"
         inkscape:connector-curvature="0"
         id="path3105"
         d="m 509.75056,323.54832 -1.0897,1.34582 11.09678,13.4582 c 0.0365,0.0657 0.0785,0.12397 0.12713,0.1765 0.1375,0.14859 0.32818,0.24269 0.52669,0.24269 0.42987,0 0.76279,-0.42649 0.76279,-0.94869 0,-0.24934 -0.07,-0.47088 -0.19978,-0.63982 l -0.0182,-0.0221 -11.20575,-13.61264 z"
         style="fill:#4e4e4e;fill-opacity:1;stroke:#666666;stroke-width:0;stroke-linecap:round;stroke-linejoin:miter;stroke-miterlimit:4;stroke-opacity:1;stroke-dashoffset:0" />
      <path
         id="path3109"
         d="m 519.70104,320.94623 c 0,6.31183 -5.11674,11.42858 -11.42857,11.42858 -6.31183,0 -11.42857,-5.11675 -11.42857,-11.42858 0,-6.31182 5.11674,-11.42857 11.42857,-11.42857 6.31183,0 11.42857,5.11675 11.42857,11.42857 z"
         style="fill:#0000ff;fill-opacity:1;stroke:#666666;stroke-width:0;stroke-linecap:round;stroke-linejoin:miter;stroke-miterlimit:4;stroke-opacity:1;stroke-dashoffset:0"
         inkscape:connector-curvature="0" />
      <path
         clip-path="url(#clipPath3808)"
         transform="translate(85.415325,10.54832)"
         id="path3111"
         d="m 431.42857,305.93362 c 0,6.31183 -5.11674,11.42858 -11.42857,11.42858 -6.31183,0 -11.42857,-5.11675 -11.42857,-11.42858 0,-6.31182 5.11674,-11.42857 11.42857,-11.42857 6.31183,0 11.42857,5.11675 11.42857,11.42857 z"
         style="opacity:0.66153846;fill:url(#radialGradient3227);fill-opacity:1;stroke:#666666;stroke-width:0;stroke-linecap:round;stroke-linejoin:miter;stroke-miterlimit:4;stroke-opacity:1;stroke-dashoffset:0"
         inkscape:connector-curvature="0" />
      <path
         sodipodi:type="arc"
         style="fill:#000000;fill-opacity:0.75;stroke:#4e4e4e;stroke-width:0;stroke-linecap:round;stroke-linejoin:miter;stroke-miterlimit:4;stroke-opacity:1;stroke-dasharray:none;stroke-dashoffset:0"
         id="path3113"
         sodipodi:cx="534.74951"
         sodipodi:cy="321.39053"
         sodipodi:rx="1.1364216"
         sodipodi:ry="1.1364216"
         d="m 535.88593,321.39053 c 0,0.62763 -0.50879,1.13643 -1.13642,1.13643 -0.62763,0 -1.13642,-0.5088 -1.13642,-1.13643 0,-0.62762 0.50879,-1.13642 1.13642,-1.13642 0.62763,0 1.13642,0.5088 1.13642,1.13642 z"
         inkscape:export-filename="/home/tim/p/crk/public/images/note_drag.png"
         inkscape:export-xdpi="82.599998"
         inkscape:export-ydpi="82.599998"
         transform="translate(11.91179,16.77348)" />
    </g>
    <g
       id="g3213"
       inkscape:export-filename="/home/tim/p/crk/public/images/pins.png"
       inkscape:export-xdpi="82.599998"
       inkscape:export-ydpi="82.599998"
       transform="translate(-16.941545,-12.076966)">
      <path
         id="path3117"
         d="m 449.19643,323.5229 c 0,6.31183 -5.11674,11.42858 -11.42857,11.42858 -6.31183,0 -11.42857,-5.11675 -11.42857,-11.42858 0,-6.31182 5.11674,-11.42857 11.42857,-11.42857 6.31183,0 11.42857,5.11675 11.42857,11.42857 z"
         style="fill:#000000;fill-opacity:0.1440678;stroke:#666666;stroke-width:0;stroke-linecap:round;stroke-linejoin:miter;stroke-miterlimit:4;stroke-opacity:1;stroke-dashoffset:0;filter:url(#filter3893)"
         inkscape:connector-curvature="0"
         transform="matrix(0.7903964,0,0,0.7903964,201.34319,187.82943)"
         inkscape:export-filename="/home/tim/p/crk/public/images/note_drag.png"
         inkscape:export-xdpi="82.599998"
         inkscape:export-ydpi="82.599998" />
      <path
         style="fill:#4e4e4e;fill-opacity:1;stroke:#666666;stroke-width:0;stroke-linecap:round;stroke-linejoin:miter;stroke-miterlimit:4;stroke-opacity:1;stroke-dashoffset:0"
         d="m 509.75056,403.54832 -1.0897,1.34582 11.09678,13.4582 c 0.0365,0.0657 0.0785,0.12397 0.12713,0.1765 0.1375,0.14859 0.32818,0.24269 0.52669,0.24269 0.42987,0 0.76279,-0.42649 0.76279,-0.94869 0,-0.24934 -0.07,-0.47088 -0.19978,-0.63982 l -0.0182,-0.0221 -11.20575,-13.61264 z"
         id="path3119"
         inkscape:connector-curvature="0"
         inkscape:export-filename="/home/tim/p/crk/public/images/note_drag.png"
         inkscape:export-xdpi="82.599998"
         inkscape:export-ydpi="82.599998" />
      <path
         inkscape:connector-curvature="0"
         style="fill:#ffff00;fill-opacity:1;stroke:#666666;stroke-width:0;stroke-linecap:round;stroke-linejoin:miter;stroke-miterlimit:4;stroke-opacity:1;stroke-dashoffset:0"
         d="m 519.70104,400.94623 c 0,6.31183 -5.11674,11.42858 -11.42857,11.42858 -6.31183,0 -11.42857,-5.11675 -11.42857,-11.42858 0,-6.31182 5.11674,-11.42857 11.42857,-11.42857 6.31183,0 11.42857,5.11675 11.42857,11.42857 z"
         id="path3123" />
      <path
         inkscape:connector-curvature="0"
         style="opacity:0.66153846;fill:url(#radialGradient3229);fill-opacity:1;stroke:#666666;stroke-width:0;stroke-linecap:round;stroke-linejoin:miter;stroke-miterlimit:4;stroke-opacity:1;stroke-dashoffset:0"
         d="m 431.42857,305.93362 c 0,6.31183 -5.11674,11.42858 -11.42857,11.42858 -6.31183,0 -11.42857,-5.11675 -11.42857,-11.42858 0,-6.31182 5.11674,-11.42857 11.42857,-11.42857 6.31183,0 11.42857,5.11675 11.42857,11.42857 z"
         id="path3125"
         transform="translate(85.415325,90.54832)"
         clip-path="url(#clipPath3808)" />
      <path
         transform="translate(11.91179,96.77348)"
         inkscape:export-ydpi="82.599998"
         inkscape:export-xdpi="82.599998"
         inkscape:export-filename="/home/tim/p/crk/public/images/note_drag.png"
         d="m 535.88593,321.39053 c 0,0.62763 -0.50879,1.13643 -1.13642,1.13643 -0.62763,0 -1.13642,-0.5088 -1.13642,-1.13643 0,-0.62762 0.50879,-1.13642 1.13642,-1.13642 0.62763,0 1.13642,0.5088 1.13642,1.13642 z"
         sodipodi:ry="1.1364216"
         sodipodi:rx="1.1364216"
         sodipodi:cy="321.39053"
         sodipodi:cx="534.74951"
         id="path3127"
         style="fill:#000000;fill-opacity:0.75;stroke:#4e4e4e;stroke-width:0;stroke-linecap:round;stroke-linejoin:miter;stroke-miterlimit:4;stroke-opacity:1;stroke-dasharray:none;stroke-dashoffset:0"
         sodipodi:type="arc" />
    </g>
    <path
       inkscape:export-ydpi="82.599998"
       inkscape:export-xdpi="82.599998"
       inkscape:export-filename="/home/tim/p/crk/public/images/note.png"
       style="fill:#000000;fill-opacity:0.22881356;stroke:#666666;stroke-width:0;stroke-linecap:round;stroke-linejoin:miter;stroke-miterlimit:4;stroke-opacity:1;stroke-dashoffset:0;filter:url(#filter3997)"
       d="m 66.715119,339.01977 0,220.72309 c 0.0786,5.93168 -0.36259,6.96181 -1.01015,9.07291 l 261.119911,-2.88372 c 0.33671,-2.10421 0.16836,-6.44404 1.01015,-11.74503 L 320.76398,334.0049 c -44.01394,0.22686 -64.62696,5.6719 -99.92832,5.01487 z"
       id="path3261"
       inkscape:connector-curvature="0"
       sodipodi:nodetypes="cccccccc" />
    <path
       inkscape:export-ydpi="82.599998"
       inkscape:export-xdpi="82.599998"
       inkscape:export-filename="/home/tim/p/crk/public/images/note.png"
       sodipodi:nodetypes="cccccccc"
       inkscape:connector-curvature="0"
       id="path3263"
       d="m 62.169399,333.96897 0,220.72309 c 0.0786,5.93168 -0.36259,6.96181 -1.01015,9.07291 l 261.624991,-9.44971 c 0.33671,-2.10421 0.67343,-4.42374 1.01015,-7.19935 l 0,-209.57551 c -37.95301,-3.30868 -72.20309,-2.9144 -107.50445,-3.57143 z"
       style="fill:#ffdf6a;fill-opacity:1;stroke:#cc0000;stroke-width:1;stroke-linecap:round;stroke-linejoin:miter;stroke-miterlimit:4;stroke-opacity:1;stroke-dashoffset:0;stroke-dasharray:none" />
    <path
       inkscape:connector-curvature="0"
       inkscape:export-ydpi="82.599998"
       inkscape:export-xdpi="82.599998"
       inkscape:export-filename="/home/tim/p/crk/public/images/note.png"
       id="path3265"
       d="m 62.169399,527.75022 0,26.9375 c 0.0786,5.93168 -0.35244,6.9514 -1,9.0625 l 261.624991,-9.4375 c 0.33671,-2.10421 0.66328,-4.41189 1,-7.1875 l 0,-19.375 -261.624991,0 z"
       style="fill:url(#linearGradient3270);fill-opacity:1;stroke:#666666;stroke-width:0;stroke-linecap:round;stroke-linejoin:miter;stroke-miterlimit:4;stroke-opacity:1;stroke-dashoffset:0" />
  </g>
</svg>
